<svg width="48" height="48" viewBox="0 0 48 48" fill="none" xmlns="http://www.w3.org/2000/svg">
<rect width="48" height="48" fill="white"/>
<path d="M39.5 40C39.5 40.1718 39.3969 40.5743 38.657 41.1574C37.934 41.7271 36.7949 42.3058 35.2536 42.8196C32.1866 43.8419 27.8542 44.5 23 44.5C18.1458 44.5 13.8134 43.8419 10.7464 42.8196C9.20509 42.3058 8.06597 41.7271 7.34299 41.1574C6.6031 40.5743 6.5 40.1718 6.5 40C6.5 39.8282 6.6031 39.4257 7.34299 38.8426C8.06597 38.2729 9.20509 37.6942 10.7464 37.1804C13.8134 36.1581 18.1458 35.5 23 35.5C27.8542 35.5 32.1866 36.1581 35.2536 37.1804C36.7949 37.6942 37.934 38.2729 38.657 38.8426C39.3969 39.4257 39.5 39.8282 39.5 40Z" stroke="#152C5B" stroke-width="3"/>
<path d="M33.5 12.8571C33.5 15.6118 32.2166 22.2133 30.0738 28.1694C29.0077 31.1329 27.7668 33.8261 26.4372 35.749C25.0392 37.7707 23.8536 38.5 23 38.5C22.1464 38.5 20.9608 37.7707 19.5628 35.749C18.2332 33.8261 16.9923 31.1329 15.9262 28.1694C13.7834 22.2133 12.5 15.6118 12.5 12.8571C12.5 7.82705 17.0562 3.5 23 3.5C28.9438 3.5 33.5 7.82705 33.5 12.8571Z" fill="white" stroke="#152C5B" stroke-width="3"/>
<path d="M28 13.5C28 15.9052 25.8451 18 23 18C20.1549 18 18 15.9052 18 13.5C18 11.0948 20.1549 9 23 9C25.8451 9 28 11.0948 28 13.5Z" stroke="#FF498B" stroke-width="2"/>
</svg>
