<svg width="48" height="48" viewBox="0 0 48 48" fill="none" xmlns="http://www.w3.org/2000/svg">
<g clip-path="url(#clip0)">
<rect width="48" height="48" fill="white"/>
<path d="M4.5 29.5H42.5V38C42.5 39.933 40.933 41.5 39 41.5H8C6.067 41.5 4.5 39.933 4.5 38V29.5Z" stroke="#152C5B" stroke-width="3"/>
<path d="M42 4V12.5V21" stroke="#FF498B" stroke-width="2" stroke-linecap="round"/>
<path d="M42 4L37.642 1.53048C37.0575 1.19927 36.3458 1.18364 35.7473 1.48885L32 3.4" stroke="#FF498B" stroke-width="2"/>
<path d="M46.5 27C46.5 28.3807 45.3807 29.5 44 29.5L4 29.5C2.61929 29.5 1.5 28.3807 1.5 27V25C1.5 23.6193 2.61929 22.5 4 22.5L44 22.5C45.3807 22.5 46.5 23.6193 46.5 25V27Z" stroke="#152C5B" stroke-width="3"/>
<path d="M9 43V44.5V46" stroke="#152C5B" stroke-width="2" stroke-linecap="round"/>
<path d="M38 43V44.5V46" stroke="#152C5B" stroke-width="2" stroke-linecap="round"/>
<path d="M29 6L28 7" stroke="#FF498B"/>
<path d="M35 6.5L36 7.5" stroke="#FF498B"/>
<path d="M32 6.29289V7.70711" stroke="#FF498B"/>
</g>
<defs>
<clipPath id="clip0">
<rect width="48" height="48" fill="white"/>
</clipPath>
</defs>
</svg>
