<svg width="48" height="48" viewBox="0 0 48 48" fill="none" xmlns="http://www.w3.org/2000/svg">
<rect width="48" height="48" fill="white"/>
<mask id="path-1-inside-1" fill="white">
<path fill-rule="evenodd" clip-rule="evenodd" d="M16.3279 9.5C15.5233 9.5 14.7969 9.98226 14.4847 10.7239L13.1053 14H8C3.58172 14 0 17.5817 0 22V37C0 41.4183 3.58172 45 8 45H40C44.4183 45 48 41.4183 48 37V22C48 17.5817 44.4183 14 40 14H35.8947L34.5153 10.7239C34.2031 9.98226 33.4767 9.5 32.6721 9.5H16.3279Z"/>
</mask>
<path d="M14.4847 10.7239L17.2496 11.8881L17.2496 11.8881L14.4847 10.7239ZM13.1053 14V17H15.0972L15.8702 15.1642L13.1053 14ZM35.8947 14L33.1298 15.1642L33.9028 17H35.8947V14ZM34.5153 10.7239L31.7504 11.8881V11.8881L34.5153 10.7239ZM17.2496 11.8881C17.0935 12.2589 16.7303 12.5 16.3279 12.5V6.5C14.3162 6.5 12.5004 7.70564 11.7198 9.55972L17.2496 11.8881ZM15.8702 15.1642L17.2496 11.8881L11.7198 9.55971L10.3404 12.8358L15.8702 15.1642ZM8 17H13.1053V11H8V17ZM3 22C3 19.2386 5.23858 17 8 17V11C1.92487 11 -3 15.9249 -3 22H3ZM3 37V22H-3V37H3ZM8 42C5.23858 42 3 39.7614 3 37H-3C-3 43.0751 1.92487 48 8 48V42ZM40 42H8V48H40V42ZM45 37C45 39.7614 42.7614 42 40 42V48C46.0751 48 51 43.0751 51 37H45ZM45 22V37H51V22H45ZM40 17C42.7614 17 45 19.2386 45 22H51C51 15.9249 46.0751 11 40 11V17ZM35.8947 17H40V11H35.8947V17ZM31.7504 11.8881L33.1298 15.1642L38.6596 12.8358L37.2802 9.55972L31.7504 11.8881ZM32.6721 12.5C32.2697 12.5 31.9065 12.2589 31.7504 11.8881L37.2802 9.55972C36.4996 7.70565 34.6838 6.5 32.6721 6.5V12.5ZM16.3279 12.5H32.6721V6.5H16.3279V12.5Z" fill="#152C5B" mask="url(#path-1-inside-1)"/>
<circle cx="24" cy="31" r="9" stroke="#FF498B" stroke-width="2"/>
<circle cx="24" cy="31" r="4" stroke="#FF498B" stroke-width="2"/>
<path d="M35 23L41 23" stroke="#152C5B" stroke-width="3" stroke-linecap="round"/>
</svg>
