<svg width="48" height="48" viewBox="0 0 48 48" fill="none" xmlns="http://www.w3.org/2000/svg">
<g clip-path="url(#clip0)">
<rect width="48" height="48" fill="white"/>
<mask id="path-1-inside-1" fill="white">
<path d="M36 23C36 23.5523 35.5523 24 35 24H12C11.4477 24 11 23.5523 11 23C11 22.4477 11.4477 22 12 22L35 22C35.5523 22 36 22.4477 36 23Z"/>
</mask>
<path d="M35 20L12 20V28L35 28V20ZM12 26L35 26V18L12 18V26ZM35 26C33.3431 26 32 24.6568 32 23L40 23C40 20.2386 37.7614 18 35 18V26ZM15 23C15 24.6569 13.6569 26 12 26V18C9.23858 18 7 20.2386 7 23H15ZM12 20C13.6569 20 15 21.3431 15 23H7C7 25.7614 9.23858 28 12 28V20ZM35 28C37.7614 28 40 25.7614 40 23L32 23C32 21.3431 33.3431 20 35 20V28Z" fill="#152C5B" mask="url(#path-1-inside-1)"/>
<path d="M15 24V28V32" stroke="#152C5B" stroke-width="2" stroke-linecap="round"/>
<path d="M33 23V27.5V32" stroke="#152C5B" stroke-width="2" stroke-linecap="round"/>
<path d="M24 2V5.59459V9" stroke="#FF498B" stroke-width="2"/>
<path d="M17.8541 7.7461C17.9695 7.3065 18.3669 7 18.8214 7H29.1786C29.6331 7 30.0305 7.3065 30.1459 7.7461L30.6709 9.7461C30.8373 10.38 30.359 11 29.7036 11H18.2964C17.641 11 17.1627 10.38 17.3291 9.7461L17.8541 7.7461Z" fill="#FF498B"/>
<path d="M45.5 12L44.5 19V26" stroke="#152C5B"/>
<path d="M2 12L3 19V26" stroke="#152C5B"/>
<path d="M5 27V33" stroke="#152C5B"/>
<path d="M42.5 27V33" stroke="#152C5B"/>
<path d="M10 27V33" stroke="#152C5B"/>
<path d="M37.5 27V33" stroke="#152C5B"/>
<path d="M44.6894 24.7575C44.5781 24.3123 44.1781 24 43.7192 24H37C36.6852 24 36.3889 24.1482 36.2 24.4C35.7056 25.0592 36.176 26 37 26H43.7192C44.3698 26 44.8472 25.3886 44.6894 24.7575Z" fill="#152C5B"/>
<path d="M2.81063 24.7575C2.92193 24.3123 3.32191 24 3.78078 24H10.5C10.8148 24 11.1111 24.1482 11.3 24.4C11.7944 25.0592 11.324 26 10.5 26H3.78078C3.13021 26 2.65285 25.3886 2.81063 24.7575Z" fill="#152C5B"/>
<path d="M17 22H31V26L24 29L17 26V22Z" fill="#152C5B"/>
</g>
<defs>
<clipPath id="clip0">
<rect width="48" height="48" fill="white"/>
</clipPath>
</defs>
</svg>
